<svg xmlns="http://www.w3.org/2000/svg" viewBox="0 0 104.95 104"><g id="Layer_2" data-name="Layer 2"><g id="Layer_1-2" data-name="Layer 1"><circle cx="52.95" cy="52" r="51.87"/><path d="M53,.25A51.75,51.75,0,1,1,1.2,52,51.81,51.81,0,0,1,53,.25M53,0a52,52,0,1,0,52,52A52,52,0,0,0,53,0Z"/><g id="awlogo"><polygon points="25.87 30 0 71.02 4.07 71.02 22.99 40.51 44.25 71.02 56.73 71.02 28.58 30 25.87 30" style="fill:#fff"/><polygon points="44.97 30 32.48 30 60.63 71.02 63.34 71.02 68.17 63.63 66.22 60.52 44.97 30" style="fill:#fff"/><polygon points="100.74 30 81.81 60.52 74.85 50.4 62.37 50.4 76.22 71.02 78.93 71.02 104.81 30 100.74 30" style="fill:#fff"/></g></g></g></svg>